<?xml version="1.0" encoding="UTF-8"?>
<svg version="1.1" xmlns="http://www.w3.org/2000/svg" width="262" height="108">
<path d="M0 0 C86.46 0 172.92 0 262 0 C262 35.64 262 71.28 262 108 C175.54 108 89.08 108 0 108 C0 72.36 0 36.72 0 0 Z " fill="#F5F5F5" transform="translate(0,0)"/>
<path d="M0 0 C2.20186924 1.54524819 4.03996854 3.14312809 6 5 C6.51949219 4.51789062 7.03898437 4.03578125 7.57421875 3.5390625 C13.41617148 -1.7521701 17.50077841 -4.52639359 25.53515625 -4.3125 C33.11167795 -3.35192673 39.98893568 0.2445866 45 6 C48.90498293 11.48088108 49.55114647 16.38624232 49 23 C48.17757812 23.07476562 47.35515625 23.14953125 46.5078125 23.2265625 C35.54514338 24.51777757 27.4636524 28.07352927 20.47265625 36.81640625 C15.18846867 44.65158094 13.69174445 52.64432372 15 62 C16.32312421 66.19396199 18.02338622 70.07672114 20 74 C20.66696804 75.33318261 21.33368721 76.66648979 22 78 C13.55013695 78.06976559 5.10039592 78.12294519 -3.34968472 78.15543652 C-7.2741615 78.17103726 -11.19844002 78.19217207 -15.12280273 78.22631836 C-18.91591887 78.259113 -22.7088453 78.27689498 -26.50209236 78.28463173 C-27.94325811 78.29013942 -29.38441445 78.30089388 -30.82549858 78.31719017 C-42.70204676 78.44605182 -52.05224393 77.35935487 -61 69 C-66.43706699 61.9890452 -67.97291204 55.74419709 -67 47 C-66.04701412 43.74439418 -64.69362502 40.9319148 -63 38 C-62.63777344 37.360625 -62.27554688 36.72125 -61.90234375 36.0625 C-58.32777972 30.44013489 -53.27779529 27.09259843 -47 25 C-45.43881572 24.93259135 -43.8749748 24.91485544 -42.3125 24.9375 C-41.10013672 24.95103516 -41.10013672 24.95103516 -39.86328125 24.96484375 C-39.24839844 24.97644531 -38.63351563 24.98804687 -38 25 C-38.12375 23.7625 -38.2475 22.525 -38.375 21.25 C-38.3520887 13.99857486 -35.07102031 7.10693868 -29.99609375 1.97265625 C-28.05919377 0.46944545 -26.13669388 -0.802021 -24 -2 C-23.195625 -2.45375 -22.39125 -2.9075 -21.5625 -3.375 C-13.69247066 -5.29451935 -7.09041992 -3.75516317 0 0 Z " fill="#010101" transform="translate(134,17)"/>
<path d="M0 0 C0.99 0 1.98 0 3 0 C3 1.32 3 2.64 3 4 C4.3303125 4.12375 4.3303125 4.12375 5.6875 4.25 C9.53953262 5.12215833 11.29264788 6.13794204 14 9 C14.8125 12.25 14.8125 12.25 15 15 C13.56344146 15.08131463 12.1255517 15.13933559 10.6875 15.1875 C9.88699219 15.22230469 9.08648437 15.25710937 8.26171875 15.29296875 C5.52148416 14.93801608 4.70828921 14.10633718 3 12 C3 13.65 3 15.3 3 17 C4.03125 17.061875 5.0625 17.12375 6.125 17.1875 C11.05819933 18.2218805 12.65904071 19.25160665 16 23 C16.61631733 26.83486338 16.33093087 29.14347304 14.9375 32.75 C12.33526313 35.7719525 9.74081949 36.73079339 6 38 C5.01 38 4.02 38 3 38 C3 39.32 3 40.64 3 42 C2.01 42 1.02 42 0 42 C0 40.68 0 39.36 0 38 C-1.051875 37.938125 -2.10375 37.87625 -3.1875 37.8125 C-7.7363203 36.84307928 -9.21952412 35.68004161 -12 32 C-12.8125 28.6875 -12.8125 28.6875 -13 26 C-9.7 26 -6.4 26 -3 26 C-2.67 26.99 -2.34 27.98 -2 29 C-1.34 29.33 -0.68 29.66 0 30 C0 28.02 0 26.04 0 24 C-0.886875 23.9175 -1.77375 23.835 -2.6875 23.75 C-6.44700715 22.89879084 -8.22084432 21.62034678 -11 19 C-12.42662219 16.14675563 -12.31033868 14.16545451 -12 11 C-9.84063797 7.60671681 -7.84323459 5.32111189 -4 4 C-2.68 4 -1.36 4 0 4 C0 2.68 0 1.36 0 0 Z " fill="#161616" transform="translate(179,50)"/>
</svg>
